<svg id="SvgjsSvg1000" xmlns="http://www.w3.org/2000/svg" version="1.1" xmlns:xlink="http://www.w3.org/1999/xlink" xmlns:svgjs="http://svgjs.com/svgjs" width="7" height="16" viewBox="0 0 7 16"><defs id="SvgjsDefs1001"></defs><path id="SvgjsPath1007" d="M437 61.8577L434.616 61.8577L434.616 60.3011C434.616 59.716499999999996 435.005 59.5794 435.279 59.5794C435.553 59.5794 436.961 59.5794 436.961 59.5794L436.961 57.01L434.64500000000004 57.0008C432.07300000000004 57.0008 431.487 58.917899999999996 431.487 60.144999999999996L431.487 61.857699999999994L430 61.857699999999994L430 64.50609999999999L431.487 64.50609999999999C431.487 67.90509999999999 431.487 72.00099999999999 431.487 72.00099999999999L434.61600000000004 72.00099999999999C434.61600000000004 72.00099999999999 434.61600000000004 67.8642 434.61600000000004 64.50609999999999L436.72700000000003 64.50609999999999Z " transform="matrix(1,0,0,1,-430,-57)"></path></svg>