<svg id="SvgjsSvg1014" xmlns="http://www.w3.org/2000/svg" version="1.1" xmlns:xlink="http://www.w3.org/1999/xlink" xmlns:svgjs="http://svgjs.com/svgjs" width="14" height="15" viewBox="0 0 14 15"><defs id="SvgjsDefs1015"></defs><path id="SvgjsPath1016" d="M880.294 57.0014L871.706 57.0014C870.214 57.0014 869 58.2149 869 59.7069L869 68.2949C869 69.7872 870.214 71.0007 871.706 71.0007L880.294 71.0007C881.786 71.0007 883 69.7872 883 68.2949L883 59.7069C883 58.2149 881.786 57.0014 880.294 57.0014ZM874.003 62.5641C874.45 61.943400000000004 875.178 61.536500000000004 876 61.536500000000004C876.822 61.536500000000004 877.55 61.943400000000004 877.998 62.5641C878.2900000000001 62.969500000000004 878.464 63.4647 878.464 64.0014C878.464 65.3591 877.3580000000001 66.46470000000001 876 66.46470000000001C874.642 66.46470000000001 873.536 65.35910000000001 873.536 64.0014C873.536 63.4647 873.7109999999999 62.969500000000004 874.0029999999999 62.5641ZM881 59.0009L881 61.001000000000005L879.014 60.993900000000004L879 59.0009ZM882 68.0016C882 69.3381 881.347 70.0011 880 70.0011L872 70.0011C870.615 70.0011 870 69.2892 870 68.0016L870 62.000899999999994L873 62.000899999999994C872.448 62.640899999999995 872.172 63.492999999999995 872.172 64.00139999999999C872.172 66.1112 873.889 67.82919999999999 876 67.82919999999999C878.111 67.82919999999999 879.828 66.11119999999998 879.828 64.00139999999999C879.828 63.49299999999999 879.472 62.37619999999999 879 62.00089999999999L882 62.00089999999999Z " fill="#ffffff" transform="matrix(1,0,0,1,-869,-57)"></path></svg>