<svg id="SvgjsSvg1008" xmlns="http://www.w3.org/2000/svg" version="1.1" xmlns:xlink="http://www.w3.org/1999/xlink" xmlns:svgjs="http://svgjs.com/svgjs" width="67" height="64" viewBox="0 0 67 64"><defs id="SvgjsDefs1009"></defs><path id="SvgjsPath1010" d="M570 1260.93C570 1261.52 570.472 1262 571.055 1262L580.563 1262C581.146 1262 581.619 1261.52 581.619 1260.93L581.619 1230.64C581.619 1230.0500000000002 581.1460000000001 1229.5700000000002 580.563 1229.5700000000002L571.055 1229.5700000000002C570.472 1229.5700000000002 570 1230.0500000000002 570 1230.64ZM636.099 1234.59C633.9630000000001 1230.8799999999999 639.075 1229.09 634.6650000000001 1225.6299999999999C629.1100000000001 1221.26 629.47 1221.9399999999998 617.4540000000001 1221.8C615.5540000000001 1221.78 613.2080000000001 1221.99 613.821 1218C616.275 1201.96 612.229 1198.98 609.546 1198.23C603.897 1196.66 610.735 1203.23 603.6610000000001 1215.54C603.037 1216.6299999999999 601.157 1217.8799999999999 599.889 1219.96C597.271 1224.28 594.754 1231.08 592.58 1231.08C591.028 1231.08 587.014 1231.08 583.619 1231.08L583.619 1258.3899999999999C588.6990000000001 1257.9899999999998 595.931 1257.4099999999999 597.7370000000001 1257.2599999999998C600.5960000000001 1257.0199999999998 602.9540000000001 1259.0099999999998 607.1980000000001 1259.0099999999998C610.9700000000001 1259.0099999999998 613.3610000000001 1261.3799999999997 626.2150000000001 1259.3799999999997C628.0310000000002 1259.0999999999997 631.4030000000001 1255.5599999999997 630.7320000000002 1252.6899999999996C630.2150000000001 1250.4799999999996 636.3850000000002 1248.7399999999996 635.0540000000002 1244.6899999999996C633.4890000000001 1239.9299999999996 639.0970000000002 1239.7899999999995 636.0990000000002 1234.5899999999997Z " transform="matrix(1,0,0,1,-570,-1198)"></path></svg>