<svg id="SvgjsSvg1011" xmlns="http://www.w3.org/2000/svg" version="1.1" xmlns:xlink="http://www.w3.org/1999/xlink" xmlns:svgjs="http://svgjs.com/svgjs" width="9" height="15" viewBox="0 0 9 15"><defs id="SvgjsDefs1012"></defs><path id="SvgjsPath1013" d="M711.5 63.7309C713.711 63.7309 715.507 61.997499999999995 715.507 59.8665C715.507 57.734500000000004 713.7109999999999 56.0009 711.5 56.0009C709.29 56.0009 707.493 57.734500000000004 707.493 59.8665C707.493 61.9975 709.2900000000001 63.730900000000005 711.5 63.730900000000005ZM711.5 58.2662C712.415 58.2662 713.159 58.9837 713.159 59.866499999999995C713.159 60.7484 712.415 61.46639999999999 711.5 61.46639999999999C710.586 61.46639999999999 709.841 60.74839999999999 709.841 59.866499999999995C709.841 58.98369999999999 710.586 58.2662 711.5 58.2662ZM713.121 66.884C713.937 66.7054 714.7239999999999 66.3934 715.448 65.9545C715.997 65.62129999999999 716.162 64.9217 715.816 64.3933C715.471 63.8627 714.7470000000001 63.703199999999995 714.198 64.0367C712.5559999999999 65.0326 710.443 65.03229999999999 708.802 64.0367C708.253 63.703199999999995 707.529 63.8627 707.184 64.3933C706.838 64.92229999999999 707.0029999999999 65.62129999999999 707.5509999999999 65.9545C708.276 66.3934 709.0629999999999 66.7054 709.8779999999999 66.884L707.6379999999999 69.0455C707.18 69.4875 707.18 70.2043 707.6389999999999 70.6466C707.8679999999999 70.86760000000001 708.1679999999999 70.9783 708.4679999999998 70.9783C708.7689999999999 70.9783 709.0699999999998 70.86760000000001 709.2989999999999 70.6466L711.4999999999999 68.5229L713.7019999999999 70.6466C714.1599999999999 71.08930000000001 714.9029999999999 71.08930000000001 715.3619999999999 70.6466C715.8209999999998 70.2043 715.8209999999998 69.4872 715.3619999999999 69.0455Z " fill="#ffffff" transform="matrix(1,0,0,1,-707,-56)"></path></svg>