<svg id="SvgjsSvg1000" xmlns="http://www.w3.org/2000/svg" version="1.1" xmlns:xlink="http://www.w3.org/1999/xlink" xmlns:svgjs="http://svgjs.com/svgjs" width="91" height="59" viewBox="0 0 91 59"><defs id="SvgjsDefs1001"></defs><path id="SvgjsPath1007" d="M228.985 1241.35C230.52300000000002 1239.74 231.58200000000002 1237.76 231.9 1236.6C232.108 1235.84 232.255 1235.05 232.35 1234.4599999999998C233.003 1234.1399999999999 233.50799999999998 1233.61 233.78199999999998 1232.9299999999998C234.16699999999997 1231.9599999999998 234.37599999999998 1229.87 234.379 1229.7799999999997C234.548 1228.1199999999997 233.963 1227.1699999999998 233.909 1227.1099999999997C234.588 1220.3899999999996 232.438 1219.0699999999997 231.005 1218.8299999999997C230.495 1218.7499999999998 229.72299999999998 1218.5599999999997 229.382 1218.1699999999996C228.577 1217.2899999999995 228.221 1216.3099999999997 226.833 1216.3899999999996C226.324 1216.4099999999996 225.629 1216.2499999999995 225.237 1215.9299999999996C224.704 1215.4799999999996 223.971 1214.9599999999996 223.434 1214.9599999999996C222.899 1214.9599999999996 222.225 1215.4599999999996 221.739 1215.8999999999996C221.352 1216.2399999999996 220.67600000000002 1216.4099999999996 220.165 1216.3899999999996C218.77599999999998 1216.3099999999997 218.421 1217.2899999999997 217.618 1218.1699999999996C217.274 1218.5599999999997 216.503 1218.7499999999995 215.994 1218.8299999999997C214.557 1219.0699999999997 212.408 1220.3999999999996 213.089 1227.1199999999997C213.03 1227.1799999999996 212.453 1228.1399999999996 212.619 1229.7799999999997C212.625 1229.8699999999997 212.833 1231.9599999999998 213.218 1232.9299999999998C213.49599999999998 1233.61 213.994 1234.1399999999999 214.64999999999998 1234.4599999999998C214.74599999999998 1235.0499999999997 214.89299999999997 1235.85 215.09699999999998 1236.6C215.427 1237.79 216.49999999999997 1239.81 218.058 1241.4199999999998L218.024 1241.4199999999998C217.808 1250.7699999999998 198.168 1245.6 202.358 1262.3799999999999C203.691 1267.1299999999999 220.862 1267.9999999999998 223.505 1267.81C226.13899999999998 1268 243.30599999999998 1267.1299999999999 244.643 1262.3799999999999C248.828 1245.61 229.242 1250.6599999999999 228.985 1241.35ZM252.852 1234.46C254.336 1232.91 255.359 1231 255.666 1229.8700000000001C255.864 1229.15 256.007 1228.38 256.098 1227.8100000000002C256.729 1227.5100000000002 257.218 1226.9900000000002 257.481 1226.3400000000001C257.852 1225.4 258.055 1223.38 258.058 1223.3000000000002C258.221 1221.6900000000003 257.656 1220.7700000000002 257.603 1220.7200000000003C258.258 1214.2400000000002 256.185 1212.9600000000003 254.8 1212.7300000000002C254.309 1212.6500000000003 253.56300000000002 1212.4600000000003 253.234 1212.1000000000001C252.459 1211.2400000000002 252.114 1210.2900000000002 250.775 1210.3700000000001C250.286 1210.4 249.612 1210.24 249.237 1209.93C248.719 1209.49 248.01399999999998 1209 247.49599999999998 1209C246.97799999999998 1209 246.32899999999998 1209.48 245.85799999999998 1209.9C245.48599999999996 1210.23 244.83499999999998 1210.4 244.33899999999997 1210.3700000000001C243.00199999999998 1210.2900000000002 242.65599999999998 1211.24 241.88099999999997 1212.1000000000001C241.55099999999996 1212.47 240.80999999999997 1212.65 240.31499999999997 1212.7300000000002C238.93099999999998 1212.9600000000003 236.85599999999997 1214.2400000000002 237.51299999999998 1220.7300000000002C237.456 1220.7900000000002 236.89799999999997 1221.7100000000003 237.05799999999996 1223.3000000000002C237.06399999999996 1223.38 237.26699999999997 1225.4 237.63599999999997 1226.3400000000001C237.90499999999997 1226.9900000000002 238.38499999999996 1227.5100000000002 239.01999999999995 1227.8100000000002C239.11199999999997 1228.38 239.25299999999996 1229.16 239.45099999999996 1229.8700000000001C239.76599999999996 1231.0300000000002 240.80299999999997 1232.97 242.30599999999995 1234.5300000000002L242.27399999999994 1234.5300000000002C242.16299999999995 1239.38 236.63099999999994 1240.1800000000003 232.16899999999995 1242.4C232.73799999999994 1243.42 234.22199999999995 1244.17 237.27599999999995 1245.42C242.07699999999994 1247.38 249.10599999999997 1250.26 248.00899999999996 1260.01C251.60799999999995 1260.09 266.73099999999994 1259.1299999999999 267.95799999999997 1254.75C271.99999999999994 1238.57 253.09999999999997 1243.45 252.85199999999998 1234.46ZM209.743 1245.48C212.861 1244.22 214.338 1243.47 214.877 1242.42C210.40800000000002 1240.19 204.84 1239.4 204.726 1234.53L204.694 1234.53C206.19799999999998 1232.97 207.23399999999998 1231.03 207.54999999999998 1229.87C207.74599999999998 1229.1599999999999 207.891 1228.3799999999999 207.98199999999997 1227.81C208.61499999999998 1227.51 209.09499999999997 1226.99 209.36599999999996 1226.34C209.73599999999996 1225.3999999999999 209.93799999999996 1223.3799999999999 209.94199999999995 1223.3C210.10199999999995 1221.71 209.54399999999995 1220.78 209.48799999999994 1220.73C210.14699999999993 1214.24 208.07099999999994 1212.96 206.68599999999995 1212.73C206.19399999999996 1212.65 205.44899999999996 1212.47 205.11999999999995 1212.1C204.34399999999994 1211.24 203.99799999999993 1210.29 202.66199999999995 1210.37C202.16599999999994 1210.3999999999999 201.51499999999996 1210.2299999999998 201.14199999999994 1209.8999999999999C200.67199999999994 1209.4799999999998 200.02199999999993 1208.9999999999998 199.50599999999994 1208.9999999999998C198.98499999999996 1208.9999999999998 198.27999999999994 1209.4899999999998 197.76499999999993 1209.9299999999998C197.38799999999992 1210.2399999999998 196.71499999999992 1210.3999999999999 196.22699999999992 1210.37C194.88699999999992 1210.29 194.5409999999999 1211.2399999999998 193.7659999999999 1212.1C193.4369999999999 1212.4599999999998 192.69099999999992 1212.6499999999999 192.1999999999999 1212.73C190.8149999999999 1212.96 188.7419999999999 1214.24 189.3969999999999 1220.72C189.3469999999999 1220.77 188.7809999999999 1221.7 188.9439999999999 1223.3C188.9479999999999 1223.3799999999999 189.1479999999999 1225.3999999999999 189.5199999999999 1226.34C189.78499999999988 1226.99 190.2709999999999 1227.51 190.9019999999999 1227.81C190.9929999999999 1228.3799999999999 191.1359999999999 1229.1499999999999 191.3369999999999 1229.87C191.6419999999999 1231 192.6629999999999 1232.9099999999999 194.1509999999999 1234.4599999999998C193.8999999999999 1243.4499999999998 175.0009999999999 1238.5699999999997 179.0429999999999 1254.7599999999998C180.2709999999999 1259.1299999999997 195.3889999999999 1260.0899999999997 198.9899999999999 1260.0199999999998C197.89199999999988 1250.2499999999998 204.9349999999999 1247.4199999999998 209.74299999999988 1245.4799999999998Z " fill="#ffffff" transform="matrix(1,0,0,1,-178,-1209)"></path></svg>