<svg id="SvgjsSvg1011" xmlns="http://www.w3.org/2000/svg" version="1.1" xmlns:xlink="http://www.w3.org/1999/xlink" xmlns:svgjs="http://svgjs.com/svgjs" width="43" height="71" viewBox="0 0 43 71"><defs id="SvgjsDefs1012"></defs><path id="SvgjsPath1013" d="M1006.67 1220.13L990.4739999999999 1203.38C990.2449999999999 1203.15 989.939 1202.99 989.6339999999999 1202.99C989.4809999999999 1202.99 989.3279999999999 1202.99 989.1759999999999 1203.07C988.717 1203.22 988.4879999999999 1203.6899999999998 988.4879999999999 1204.1499999999999L988.4879999999999 1212.2499999999998C977.872 1214.8799999999999 972.2959999999999 1220.9699999999998 969.5469999999999 1225.6799999999998C966.415 1231.0099999999998 966.0329999999999 1235.7099999999998 966.0329999999999 1235.87C965.9569999999999 1236.33 966.2629999999999 1236.79 966.6439999999999 1237.03C966.7969999999999 1237.1 967.0259999999998 1237.18 967.1789999999999 1237.18C967.4849999999999 1237.18 967.7139999999998 1237.1000000000001 967.9429999999999 1236.8700000000001C968.0189999999999 1236.7900000000002 976.8019999999999 1229.39 988.4879999999998 1229.0000000000002L988.4879999999998 1237.7200000000003C988.4879999999998 1238.1800000000003 988.7939999999999 1238.6500000000003 989.1759999999998 1238.8000000000002C989.3279999999999 1238.88 989.4809999999998 1238.88 989.6339999999998 1238.88C989.9389999999997 1238.88 990.2449999999998 1238.72 990.4739999999998 1238.49L998.7989999999999 1229.85L1006.6699999999998 1221.82C1007.1199999999999 1221.36 1007.1199999999999 1220.59 1006.6699999999998 1220.1299999999999ZM1005.83 1238.88C1005.5200000000001 1238.88 1005.2900000000001 1238.96 1005.0600000000001 1239.19C1004.83 1239.3400000000001 996.1260000000001 1246.67 984.517 1247.06L984.517 1238.34C984.517 1237.87 984.211 1237.4099999999999 983.8290000000001 1237.26C983.676 1237.18 983.5240000000001 1237.18 983.3710000000001 1237.18C983.065 1237.18 982.7600000000001 1237.3300000000002 982.5310000000001 1237.5700000000002L974.206 1246.13L966.339 1254.24C965.8810000000001 1254.7 965.8810000000001 1255.39 966.339 1255.86L982.5310000000001 1272.6C982.7600000000001 1272.83 983.065 1272.99 983.3710000000001 1272.99C983.5240000000001 1272.99 983.676 1272.99 983.8290000000001 1272.91C984.287 1272.76 984.517 1272.2900000000002 984.517 1271.8300000000002L984.517 1263.8000000000002C995.133 1261.1800000000003 1000.71 1255.0800000000002 1003.46 1250.38C1006.36 1245.3600000000001 1006.89 1240.96 1006.97 1240.2700000000002C1006.97 1240.1900000000003 1006.97 1240.1100000000001 1006.97 1240.1100000000001C1006.97 1239.42 1006.51 1238.88 1005.83 1238.88Z "  transform="matrix(1,0,0,1,-965,-1202)"></path></svg>