<svg id="SvgjsSvg1017" xmlns="http://www.w3.org/2000/svg" version="1.1" xmlns:xlink="http://www.w3.org/1999/xlink" xmlns:svgjs="http://svgjs.com/svgjs" width="14" height="14" viewBox="0 0 14 14"><defs id="SvgjsDefs1018"></defs><path id="SvgjsPath1019" d="M1023 59.4171C1022.48 59.662099999999995 1021.93 59.820699999999995 1021.35 59.8944C1021.94 59.518499999999996 1022.4 58.928 1022.62 58.2198C1022.0600000000001 58.565 1021.45 58.8125 1020.79 58.9566C1020.27 58.3646 1019.52 57.9961 1018.6899999999999 57.9961C1017.1099999999999 57.9961 1015.8199999999999 59.3516 1015.8199999999999 61.028099999999995C1015.8199999999999 61.263799999999996 1015.8499999999999 61.4965 1015.89 61.7157C1013.51 61.594899999999996 1011.39 60.3829 1009.97 58.5527C1009.73 58.9987 1009.58 59.5185 1009.58 60.0764C1009.58 61.1261 1010.09 62.0596 1010.86 62.5951C1010.39 62.576 1009.95 62.4472 1009.5600000000001 62.2182C1009.5600000000001 62.230500000000006 1009.5600000000001 62.2468 1009.5600000000001 62.25940000000001C1009.5600000000001 63.72500000000001 1010.5500000000001 64.94930000000001 1011.87 65.2321C1011.62 65.301 1011.37 65.33200000000001 1011.11 65.33200000000001C1010.92 65.33200000000001 1010.75 65.32000000000001 1010.57 65.27820000000001C1010.9300000000001 66.48750000000001 1012 67.36570000000002 1013.25 67.38410000000002C1012.27 68.20050000000002 1011.03 68.68030000000002 1009.68 68.68030000000002C1009.4499999999999 68.68030000000002 1009.2199999999999 68.66740000000001 1009 68.63820000000001C1010.27 69.50260000000002 1011.78 70.00580000000001 1013.4 70.00580000000001C1018.6899999999999 70.00580000000001 1021.5799999999999 65.3849 1021.5799999999999 61.378800000000005C1021.5799999999999 61.25150000000001 1021.5799999999999 61.12120000000001 1021.5699999999999 60.9915C1022.1299999999999 60.5584 1022.6199999999999 60.0232 1022.9999999999999 59.417100000000005Z " fill="#ffffff" transform="matrix(1,0,0,1,-1009,-57)"></path></svg>