<svg id="SvgjsSvg1008" xmlns="http://www.w3.org/2000/svg" version="1.1" xmlns:xlink="http://www.w3.org/1999/xlink" xmlns:svgjs="http://svgjs.com/svgjs" width="18" height="12" viewBox="0 0 18 12"><defs id="SvgjsDefs1009"></defs><path id="SvgjsPath1010" d="M569.807 69.8619L570.883 69.8619C570.883 69.8619 571.2080000000001 69.8241 571.374 69.6341C571.5260000000001 69.4598 571.522 69.13250000000001 571.522 69.13250000000001C571.522 69.13250000000001 571.5010000000001 67.599 572.1700000000001 67.373C572.831 67.15050000000001 573.6790000000001 68.8549 574.5780000000001 69.51060000000001C575.258 70.00670000000001 575.7740000000001 69.8979 575.7740000000001 69.8979L578.1780000000001 69.8619C578.1780000000001 69.8619 579.4360000000001 69.77980000000001 578.839 68.72980000000001C578.791 68.64370000000001 578.4920000000001 67.95280000000001 577.052 66.53300000000002C575.5450000000001 65.04710000000001 575.7470000000001 65.28710000000001 577.562 62.71650000000002C578.668 61.15130000000002 579.11 60.19540000000002 578.972 59.786200000000015C578.84 59.396200000000015 578.0269999999999 59.499200000000016 578.0269999999999 59.499200000000016L575.3209999999999 59.51700000000002C575.3209999999999 59.51700000000002 575.1199999999999 59.48810000000002 574.9709999999999 59.58250000000002C574.8259999999999 59.67500000000002 574.7319999999999 59.891100000000016 574.7319999999999 59.891100000000016C574.7319999999999 59.891100000000016 574.3039999999999 61.10250000000001 573.7329999999998 62.132500000000014C572.5269999999998 64.30630000000002 572.0449999999998 64.42160000000001 571.8479999999998 64.28630000000001C571.3899999999999 63.97160000000001 571.5049999999999 63.02240000000001 571.5049999999999 62.34830000000001C571.5049999999999 60.24150000000001 571.8049999999998 59.36270000000001 570.9189999999999 59.13580000000001C570.6249999999999 59.06020000000001 570.4079999999999 59.01010000000001 569.6559999999998 59.00240000000001C568.6899999999998 58.99200000000001 567.8729999999998 59.00550000000001 567.4099999999999 59.24620000000001C567.1019999999999 59.40630000000001 566.8639999999998 59.76320000000001 567.0089999999999 59.78380000000001C567.1879999999999 59.809000000000005 567.5929999999998 59.900000000000006 567.8079999999999 60.21040000000001C568.0849999999999 60.61130000000001 568.0759999999999 61.51160000000001 568.0759999999999 61.51160000000001C568.0759999999999 61.51160000000001 568.2349999999999 63.991200000000006 567.7029999999999 64.29920000000001C567.3389999999998 64.51040000000002 566.8379999999999 64.07910000000001 565.7639999999999 62.10700000000001C565.2129999999999 61.09690000000001 564.7969999999999 59.98020000000001 564.7969999999999 59.98020000000001C564.7969999999999 59.98020000000001 564.7169999999999 59.77120000000001 564.574 59.65960000000001C564.401 59.52410000000001 564.159 59.48130000000001 564.159 59.48130000000001L561.587 59.49920000000001C561.587 59.49920000000001 561.201 59.51050000000001 561.059 59.68880000000001C560.933 59.84770000000001 561.049 60.175700000000006 561.049 60.175700000000006C561.049 60.175700000000006 563.062 65.1799 565.342 67.70160000000001C567.433 70.01400000000001 569.807 69.86190000000002 569.807 69.86190000000002Z " fill="#ffffff" transform="matrix(1,0,0,1,-561,-58)"></path></svg>